<svg width="148" height="198" viewBox="0 0 148 198" fill="none" xmlns="http://www.w3.org/2000/svg">
<path d="M21.1824 60.4721C68.5406 -1.89671 69.0553 0.006295 69.0553 0.006295C69.0553 0.006295 68.5406 -0.995636 123.106 60.4721C177.671 121.94 124.135 178.966 124.135 178.966V166.057C86.1154 164.943 72.0204 164.825 72.6416 181.313C72.0558 165.764 67.3692 164.004 20.6676 166.057V178.966C20.6676 178.966 -26.1758 122.841 21.1824 60.4721Z" fill="url(#paint0_linear)"/>
<path d="M125.251 150.28C125.251 149.16 125.682 148.085 126.451 147.292C127.219 146.5 128.26 146.055 129.346 146.055C129.564 146.055 129.772 145.966 129.926 145.807C130.079 145.649 130.166 145.434 130.166 145.209C130.166 144.985 130.079 144.77 129.926 144.612C129.772 144.453 129.564 144.364 129.346 144.364C128.26 144.364 127.219 143.919 126.451 143.127C125.682 142.334 125.251 141.259 125.251 140.139C125.251 139.914 125.165 139.699 125.011 139.541C124.857 139.382 124.649 139.293 124.432 139.293C124.215 139.293 124.006 139.382 123.853 139.541C123.699 139.699 123.613 139.914 123.613 140.139C123.613 141.259 123.181 142.334 122.413 143.127C121.645 143.919 120.604 144.364 119.517 144.364C119.3 144.364 119.092 144.453 118.938 144.612C118.785 144.77 118.698 144.985 118.698 145.209C118.698 145.434 118.785 145.649 118.938 145.807C119.092 145.966 119.3 146.055 119.517 146.055C120.604 146.055 121.645 146.5 122.413 147.292C123.181 148.085 123.613 149.16 123.613 150.28C123.613 150.504 123.699 150.719 123.853 150.878C124.006 151.036 124.215 151.125 124.432 151.125C124.649 151.125 124.857 151.036 125.011 150.878C125.165 150.719 125.251 150.504 125.251 150.28ZM122.466 145.209C123.271 144.708 123.946 144.012 124.432 143.181C124.918 144.012 125.593 144.708 126.398 145.209C125.593 145.711 124.918 146.407 124.432 147.238C123.946 146.407 123.271 145.711 122.466 145.209Z" fill="white"/>
<path d="M113.039 117.706C113.039 116.177 113.627 114.712 114.674 113.631C115.722 112.55 117.142 111.943 118.623 111.943C118.92 111.943 119.204 111.822 119.413 111.606C119.623 111.39 119.74 111.096 119.74 110.791C119.74 110.485 119.623 110.192 119.413 109.976C119.204 109.76 118.92 109.638 118.623 109.638C117.142 109.638 115.722 109.031 114.674 107.951C113.627 106.87 113.039 105.404 113.039 103.876C113.039 103.57 112.921 103.277 112.711 103.061C112.502 102.845 112.218 102.724 111.922 102.724C111.625 102.724 111.341 102.845 111.132 103.061C110.922 103.277 110.805 103.57 110.805 103.876C110.805 105.404 110.216 106.87 109.169 107.951C108.122 109.031 106.701 109.638 105.22 109.638C104.924 109.638 104.64 109.76 104.43 109.976C104.221 110.192 104.103 110.485 104.103 110.791C104.103 111.096 104.221 111.39 104.43 111.606C104.64 111.822 104.924 111.943 105.22 111.943C106.701 111.943 108.122 112.55 109.169 113.631C110.216 114.712 110.805 116.177 110.805 117.706C110.805 118.011 110.922 118.304 111.132 118.521C111.341 118.737 111.625 118.858 111.922 118.858C112.218 118.858 112.502 118.737 112.711 118.521C112.921 118.304 113.039 118.011 113.039 117.706ZM109.241 110.791C110.339 110.107 111.259 109.158 111.922 108.025C112.584 109.158 113.504 110.107 114.602 110.791C113.504 111.475 112.584 112.424 111.922 113.557C111.259 112.424 110.339 111.475 109.241 110.791Z" fill="white"/>
<path d="M37.0855 120.241C37.0855 119.222 37.4777 118.245 38.1759 117.524C38.8742 116.804 39.8212 116.399 40.8086 116.399C41.0061 116.399 41.1955 116.318 41.3351 116.174C41.4748 116.03 41.5532 115.835 41.5532 115.631C41.5532 115.427 41.4748 115.232 41.3351 115.088C41.1955 114.944 41.0061 114.863 40.8086 114.863C39.8212 114.863 38.8742 114.458 38.1759 113.737C37.4777 113.017 37.0855 112.04 37.0855 111.021C37.0855 110.817 37.007 110.622 36.8674 110.478C36.7277 110.334 36.5383 110.253 36.3408 110.253C36.1433 110.253 35.9539 110.334 35.8143 110.478C35.6746 110.622 35.5962 110.817 35.5962 111.021C35.5962 112.04 35.2039 113.017 34.5057 113.737C33.8075 114.458 32.8605 114.863 31.873 114.863C31.6756 114.863 31.4862 114.944 31.3465 115.088C31.2069 115.232 31.1284 115.427 31.1284 115.631C31.1284 115.835 31.2069 116.03 31.3465 116.174C31.4862 116.318 31.6756 116.399 31.873 116.399C32.8605 116.399 33.8075 116.804 34.5057 117.524C35.2039 118.245 35.5962 119.222 35.5962 120.241C35.5962 120.445 35.6746 120.64 35.8143 120.784C35.9539 120.928 36.1433 121.009 36.3408 121.009C36.5383 121.009 36.7277 120.928 36.8674 120.784C37.007 120.64 37.0855 120.445 37.0855 120.241ZM34.5537 115.631C35.2857 115.175 35.8991 114.542 36.3408 113.787C36.7826 114.542 37.396 115.175 38.1279 115.631C37.396 116.087 36.7826 116.72 36.3408 117.475C35.8991 116.72 35.2857 116.087 34.5537 115.631Z" fill="white"/>
<path d="M25.9167 128C25.9167 127.287 26.1913 126.603 26.6801 126.099C27.1688 125.595 27.8317 125.311 28.5229 125.311C28.6612 125.311 28.7938 125.255 28.8915 125.154C28.9893 125.053 29.0442 124.916 29.0442 124.774C29.0442 124.631 28.9893 124.494 28.8915 124.393C28.7938 124.292 28.6612 124.236 28.5229 124.236C27.8317 124.236 27.1688 123.952 26.6801 123.448C26.1913 122.944 25.9167 122.26 25.9167 121.547C25.9167 121.404 25.8618 121.267 25.7641 121.166C25.6663 121.065 25.5337 121.009 25.3955 121.009C25.2573 121.009 25.1247 121.065 25.0269 121.166C24.9292 121.267 24.8743 121.404 24.8743 121.547C24.8743 122.26 24.5997 122.944 24.1109 123.448C23.6222 123.952 22.9593 124.236 22.2681 124.236C22.1298 124.236 21.9972 124.292 21.8995 124.393C21.8017 124.494 21.7468 124.631 21.7468 124.774C21.7468 124.916 21.8017 125.053 21.8995 125.154C21.9972 125.255 22.1298 125.311 22.2681 125.311C22.9593 125.311 23.6222 125.595 24.1109 126.099C24.5997 126.603 24.8743 127.287 24.8743 128C24.8743 128.143 24.9292 128.28 25.0269 128.381C25.1247 128.482 25.2573 128.538 25.3955 128.538C25.5337 128.538 25.6663 128.482 25.7641 128.381C25.8618 128.28 25.9167 128.143 25.9167 128ZM24.1445 124.774C24.6569 124.454 25.0863 124.011 25.3955 123.483C25.7047 124.011 26.1341 124.454 26.6465 124.774C26.1341 125.093 25.7047 125.536 25.3955 126.064C25.0863 125.536 24.6569 125.093 24.1445 124.774Z" fill="white"/>
<path d="M123.464 94.5793C123.464 93.7642 123.447 92.6412 124.005 92.0648C124.564 91.4885 125.652 91.5061 126.442 91.5061C126.6 91.5061 126.752 91.4413 126.864 91.326C126.975 91.2108 127.038 91.0544 127.038 90.8914C127.038 90.7284 126.975 90.5721 126.864 90.4568C126.752 90.3415 126.6 90.2768 126.442 90.2768C125.652 90.2768 124.564 90.2943 124.005 89.718C123.447 89.1417 123.464 88.0186 123.464 87.2035C123.464 87.0405 123.401 86.8842 123.289 86.7689C123.178 86.6536 123.026 86.5889 122.868 86.5889C122.71 86.5889 122.559 86.6536 122.447 86.7689C122.335 86.8842 122.272 87.0405 122.272 87.2035C122.272 88.0186 122.289 89.1417 121.731 89.718C121.172 90.2943 120.084 90.2768 119.294 90.2768C119.136 90.2768 118.984 90.3415 118.873 90.4568C118.761 90.5721 118.698 90.7284 118.698 90.8914C118.698 91.0544 118.761 91.2108 118.873 91.326C118.984 91.4413 119.136 91.5061 119.294 91.5061C120.084 91.5061 121.172 91.4885 121.731 92.0648C122.289 92.6412 122.272 93.7642 122.272 94.5793C122.272 94.7423 122.335 94.8987 122.447 95.0139C122.559 95.1292 122.71 95.1939 122.868 95.1939C123.026 95.1939 123.178 95.1292 123.289 95.0139C123.401 94.8987 123.464 94.7423 123.464 94.5793Z" fill="white"/>
<path d="M132.546 123.929C132.546 123.521 132.538 122.96 132.817 122.671C133.096 122.383 133.641 122.392 134.036 122.392C134.115 122.392 134.19 122.36 134.246 122.302C134.302 122.244 134.334 122.166 134.334 122.085C134.334 122.003 134.302 121.925 134.246 121.867C134.19 121.81 134.115 121.777 134.036 121.777C133.641 121.777 133.096 121.786 132.817 121.498C132.538 121.21 132.546 120.648 132.546 120.241C132.546 120.159 132.515 120.081 132.459 120.023C132.403 119.966 132.328 119.933 132.249 119.933C132.17 119.933 132.094 119.966 132.038 120.023C131.982 120.081 131.951 120.159 131.951 120.241C131.951 120.648 131.959 121.21 131.68 121.498C131.401 121.786 130.856 121.777 130.461 121.777C130.382 121.777 130.307 121.81 130.251 121.867C130.195 121.925 130.164 122.003 130.164 122.085C130.164 122.166 130.195 122.244 130.251 122.302C130.307 122.36 130.382 122.392 130.461 122.392C130.856 122.392 131.401 122.383 131.68 122.671C131.959 122.96 131.951 123.521 131.951 123.929C131.951 124.01 131.982 124.088 132.038 124.146C132.094 124.204 132.17 124.236 132.249 124.236C132.328 124.236 132.403 124.204 132.459 124.146C132.515 124.088 132.546 124.01 132.546 123.929Z" fill="white"/>
<path d="M14.7471 98.1134C14.7471 97.7058 14.7385 97.1443 15.0178 96.8561C15.2971 96.5679 15.8413 96.5767 16.2363 96.5767C16.3153 96.5767 16.3911 96.5444 16.4469 96.4867C16.5028 96.4291 16.5342 96.3509 16.5342 96.2694C16.5342 96.1879 16.5028 96.1097 16.4469 96.0521C16.3911 95.9945 16.3153 95.9621 16.2363 95.9621C15.8413 95.9621 15.2971 95.9709 15.0178 95.6827C14.7385 95.3945 14.7471 94.833 14.7471 94.4255C14.7471 94.344 14.7157 94.2658 14.6598 94.2082C14.604 94.1505 14.5282 94.1181 14.4492 94.1181C14.3702 94.1181 14.2945 94.1505 14.2386 94.2082C14.1827 94.2658 14.1514 94.344 14.1514 94.4255C14.1514 94.833 14.1599 95.3945 13.8806 95.6827C13.6013 95.9709 13.0571 95.9621 12.6621 95.9621C12.5831 95.9621 12.5074 95.9945 12.4515 96.0521C12.3956 96.1097 12.3643 96.1879 12.3643 96.2694C12.3643 96.3509 12.3956 96.4291 12.4515 96.4867C12.5074 96.5444 12.5831 96.5767 12.6621 96.5767C13.0571 96.5767 13.6013 96.5679 13.8806 96.8561C14.1599 97.1443 14.1514 97.7058 14.1514 98.1134C14.1514 98.1949 14.1827 98.273 14.2386 98.3307C14.2945 98.3883 14.3702 98.4207 14.4492 98.4207C14.5282 98.4207 14.604 98.3883 14.6598 98.3307C14.7157 98.273 14.7471 98.1949 14.7471 98.1134Z" fill="white"/>
<path d="M132.546 123.929C132.546 123.521 132.538 122.96 132.817 122.671C133.096 122.383 133.641 122.392 134.036 122.392C134.115 122.392 134.19 122.36 134.246 122.302C134.302 122.244 134.334 122.166 134.334 122.085C134.334 122.003 134.302 121.925 134.246 121.867C134.19 121.81 134.115 121.777 134.036 121.777C133.641 121.777 133.096 121.786 132.817 121.498C132.538 121.21 132.546 120.648 132.546 120.241C132.546 120.159 132.515 120.081 132.459 120.023C132.403 119.966 132.328 119.933 132.249 119.933C132.17 119.933 132.094 119.966 132.038 120.023C131.982 120.081 131.951 120.159 131.951 120.241C131.951 120.648 131.959 121.21 131.68 121.498C131.401 121.786 130.856 121.777 130.461 121.777C130.382 121.777 130.307 121.81 130.251 121.867C130.195 121.925 130.164 122.003 130.164 122.085C130.164 122.166 130.195 122.244 130.251 122.302C130.307 122.36 130.382 122.392 130.461 122.392C130.856 122.392 131.401 122.383 131.68 122.671C131.959 122.96 131.951 123.521 131.951 123.929C131.951 124.01 131.982 124.088 132.038 124.146C132.094 124.204 132.17 124.236 132.249 124.236C132.328 124.236 132.403 124.204 132.459 124.146C132.515 124.088 132.546 124.01 132.546 123.929Z" fill="white"/>
<path d="M39.0215 159.117C39.0215 158.302 39.0044 157.179 39.563 156.602C40.1216 156.026 41.21 156.044 42 156.044C42.158 156.044 42.3095 155.979 42.4212 155.864C42.5329 155.748 42.5957 155.592 42.5957 155.429C42.5957 155.266 42.5329 155.11 42.4212 154.994C42.3095 154.879 42.158 154.814 42 154.814C41.21 154.814 40.1216 154.832 39.563 154.256C39.0044 153.679 39.0215 152.556 39.0215 151.741C39.0215 151.578 38.9587 151.422 38.847 151.307C38.7353 151.191 38.5838 151.127 38.4258 151.127C38.2678 151.127 38.1163 151.191 38.0045 151.307C37.8928 151.422 37.8301 151.578 37.8301 151.741C37.8301 152.556 37.8471 153.679 37.2885 154.256C36.7299 154.832 35.6415 154.814 34.8516 154.814C34.6936 154.814 34.5421 154.879 34.4303 154.994C34.3186 155.11 34.2559 155.266 34.2559 155.429C34.2559 155.592 34.3186 155.748 34.4303 155.864C34.5421 155.979 34.6936 156.044 34.8516 156.044C35.6415 156.044 36.7299 156.026 37.2885 156.602C37.8471 157.179 37.8301 158.302 37.8301 159.117C37.8301 159.28 37.8928 159.436 38.0045 159.552C38.1163 159.667 38.2678 159.732 38.4258 159.732C38.5838 159.732 38.7353 159.667 38.847 159.552C38.9587 159.436 39.0215 159.28 39.0215 159.117Z" fill="white"/>
<path d="M129.268 179.647H125.42V166.21C125.42 165.514 124.846 164.949 124.137 164.949H93.3518C83.9105 164.949 75.8539 166.339 72.8272 174.605C69.8004 166.34 61.7453 164.949 52.3041 164.949H21.5184C20.8098 164.949 20.2357 165.514 20.2357 166.21V179.647H16.3875C15.6789 179.647 15.1047 180.212 15.1047 180.908V182.925C15.1047 188.068 19.3629 192.252 24.597 192.252H63.9401C64.5645 196.523 68.3114 197.379 72.8272 197.379C77.3429 197.379 81.0914 196.523 81.7158 192.252H121.059C126.293 192.252 130.551 188.068 130.551 182.925V180.908C130.551 180.212 129.977 179.647 129.268 179.647ZM93.3518 167.47C103.53 167.47 102.342 167.47 108.103 167.47C113.864 167.47 122.855 167.47 122.855 167.47V169.563H106.179C105.471 169.563 104.896 170.128 104.896 170.824C104.896 171.52 105.471 172.084 106.179 172.084H122.855V179.647H74.153C74.8157 169.808 83.1735 167.47 93.3518 167.47ZM22.8012 174.605H39.4768C40.1853 174.605 40.7595 174.041 40.7595 173.345C40.7595 172.649 40.1853 172.084 39.4768 172.084H22.8012V167.47H52.3041C62.4824 167.47 70.8402 169.808 71.5029 179.647H22.8012V174.605ZM127.986 182.925C127.986 186.678 124.878 189.731 121.059 189.731H80.5244C79.8158 189.731 79.2416 190.296 79.2416 190.992C79.2416 194.467 76.3637 194.857 72.8272 194.857C69.2907 194.857 66.4143 194.467 66.4143 190.992C66.4143 190.296 65.8401 189.731 65.1315 189.731H24.597C20.7775 189.731 17.6702 186.678 17.6702 182.925V182.168C36.1632 182.168 114.819 182.168 127.986 182.168V182.925Z" fill="white"/>
<path d="M58.7172 156.082H87.3624C98.1938 148.514 100.669 142.92 102.151 131.841C91.7825 135.275 84.6977 135.171 74.4387 129.177C64.1798 123.184 45.8047 127.448 43.9283 130.509C42.0519 133.57 47.6121 151.312 58.7172 156.082Z" fill="#F76E03" stroke="#F76E03" stroke-linecap="round" stroke-linejoin="round"/>
<path d="M70.7456 91.1428L70.5919 91.1058C70.1374 90.9964 69.7002 91.3408 69.7002 91.8083C69.7002 92.1511 69.941 92.4467 70.2767 92.516L70.5548 92.5734C72.0542 92.8828 73.6011 92.8828 75.1005 92.5734L75.3785 92.516C75.7142 92.4467 75.9551 92.1511 75.9551 91.8083C75.9551 91.3408 75.5179 90.9964 75.0634 91.1058L74.9097 91.1428C73.5412 91.4723 72.1141 91.4723 70.7456 91.1428Z" fill="#FBFBFB"/>
<path d="M78.7297 141.278C76.7209 141.278 75.0867 142.884 75.0867 144.858C75.0867 146.832 76.7209 148.438 78.7297 148.438C80.7384 148.438 82.3727 146.832 82.3727 144.858C82.3727 142.884 80.7384 141.278 78.7297 141.278ZM78.7297 145.917C78.1355 145.917 77.6522 145.442 77.6522 144.858C77.6522 144.274 78.1355 143.799 78.7297 143.799C79.3238 143.799 79.8072 144.274 79.8072 144.858C79.8072 145.442 79.3238 145.917 78.7297 145.917Z" fill="#FBFBFB"/>
<path d="M58.1935 157.563C58.3807 157.663 58.5909 157.715 58.804 157.715H86.8519C87.0651 157.715 87.275 157.663 87.4625 157.563C97.3799 152.288 103.613 142.119 103.613 130.929V130.924C103.609 124.25 101.438 117.924 97.3327 112.628C93.5529 107.752 88.2686 104.066 82.3718 102.174V86.6896C82.3718 84.3535 80.7552 84.3535 80.0466 84.3535H65.9874C65.2788 84.3535 63.4222 84.3535 63.4222 86.8745V102.129C57.4926 104.001 52.1749 107.683 48.3674 112.57C44.2293 117.883 42.0422 124.235 42.0422 130.942C42.0422 142.063 48.2309 152.264 58.1935 157.563ZM86.5233 155.194H59.1327C50.4006 150.424 44.9048 141.516 44.6213 131.736C48.2017 130.153 64.4194 123.744 75.6005 131.952C79.0698 134.499 83.3015 135.342 87.3866 135.342C92.9644 135.342 98.2688 133.769 100.984 132.81C100.345 142.164 94.9347 150.599 86.5233 155.194ZM65.0571 104.276C65.6077 104.121 65.9874 103.626 65.9874 103.063V87.8745C65.9874 87.3222 66.4351 86.8745 66.9874 86.8745H78.8061C79.3584 86.8745 79.8061 87.3222 79.8061 87.8745V103.104C79.8061 103.664 80.1827 104.157 80.7304 104.314C92.4172 107.657 100.656 118.185 101.03 130.096C97.7347 131.335 84.8591 135.601 77.1359 129.932C71.3716 125.7 63.5756 124.349 54.5923 126.021C50.3174 126.818 46.7563 128.103 44.6857 128.955C45.5333 117.459 53.6685 107.474 65.0571 104.276Z" fill="#FBFBFB"/>
<path d="M59.8472 133.16C56.537 133.16 53.844 135.806 53.844 139.059C53.844 142.312 56.537 144.958 59.8472 144.958C63.1572 144.958 65.8502 142.312 65.8502 139.059C65.8502 135.807 63.1575 133.16 59.8472 133.16ZM59.8472 142.437C57.9516 142.437 56.4095 140.922 56.4095 139.059C56.4095 137.197 57.9518 135.681 59.8472 135.681C61.7429 135.681 63.2847 137.197 63.2847 139.059C63.285 140.922 61.7429 142.437 59.8472 142.437Z" fill="#FBFBFB"/>
<path d="M23.6843 150.353C27.7081 150.353 30.9817 146.975 30.9817 142.824C30.9817 138.672 27.7081 135.294 23.6843 135.294C19.6606 135.294 16.387 138.672 16.387 142.824C16.387 146.975 19.6606 150.353 23.6843 150.353ZM23.6843 137.445C26.5584 137.445 28.8967 139.858 28.8967 142.824C28.8967 145.789 26.5584 148.202 23.6843 148.202C20.8102 148.202 18.4719 145.789 18.4719 142.824C18.4719 139.858 20.8102 137.445 23.6843 137.445Z" fill="#FBFBFB"/>
<path d="M126.516 107.026C127.953 107.026 129.122 105.819 129.122 104.336C129.122 102.854 127.953 101.647 126.516 101.647C125.079 101.647 123.909 102.854 123.909 104.336C123.909 105.819 125.079 107.026 126.516 107.026ZM126.516 102.416C127.542 102.416 128.377 103.277 128.377 104.336C128.377 105.396 127.542 106.257 126.516 106.257C125.489 106.257 124.654 105.396 124.654 104.336C124.654 103.277 125.489 102.416 126.516 102.416Z" fill="#FBFBFB"/>
<path d="M28.522 94.1186C29.959 94.1186 31.1282 92.9122 31.1282 91.4295C31.1282 89.9467 29.959 88.7404 28.522 88.7404C27.0849 88.7404 25.9158 89.9467 25.9158 91.4295C25.9158 92.9122 27.0849 94.1186 28.522 94.1186ZM28.522 89.5087C29.5484 89.5087 30.3835 90.3704 30.3835 91.4295C30.3835 92.4886 29.5484 93.3503 28.522 93.3503C27.4955 93.3503 26.6604 92.4886 26.6604 91.4295C26.6604 90.3704 27.4955 89.5087 28.522 89.5087Z" fill="#FBFBFB"/>
<path d="M96.5594 100.74C97.622 100.74 98.4835 99.8939 98.4835 98.8497C98.4835 97.8054 97.622 96.9589 96.5594 96.9589C95.4967 96.9589 94.6353 97.8054 94.6353 98.8497C94.6353 99.8939 95.4967 100.74 96.5594 100.74Z" fill="#FBFBFB"/>
<path d="M120.931 130.993C121.994 130.993 122.856 130.146 122.856 129.102C122.856 128.058 121.994 127.211 120.931 127.211C119.869 127.211 119.007 128.058 119.007 129.102C119.007 130.146 119.869 130.993 120.931 130.993Z" fill="#FBFBFB"/>
<path d="M46.5313 94.4377C47.5939 94.4377 48.4554 93.5912 48.4554 92.5469C48.4554 91.5027 47.5939 90.6562 46.5313 90.6562C45.4686 90.6562 44.6072 91.5027 44.6072 92.5469C44.6072 93.5912 45.4686 94.4377 46.5313 94.4377Z" fill="#FBFBFB"/>
<path d="M22.6287 111.882C23.6914 111.882 24.5528 111.035 24.5528 109.991C24.5528 108.947 23.6914 108.1 22.6287 108.1C21.566 108.1 20.7046 108.947 20.7046 109.991C20.7046 111.035 21.566 111.882 22.6287 111.882Z" fill="#FBFBFB"/>
<path d="M109.386 153.681C110.448 153.681 111.31 152.834 111.31 151.79C111.31 150.746 110.448 149.899 109.386 149.899C108.323 149.899 107.462 150.746 107.462 151.79C107.462 152.834 108.323 153.681 109.386 153.681Z" fill="#FBFBFB"/>
<defs>
<linearGradient id="paint0_linear" x1="73.6882" y1="56.0837" x2="72.4799" y2="165.254" gradientUnits="userSpaceOnUse">
<stop stop-color="#797676" stop-opacity="0"/>
<stop offset="0.5625" stop-color="#797676" stop-opacity="0.29"/>
<stop offset="1" stop-color="#797676" stop-opacity="0.76"/>
</linearGradient>
</defs>
</svg>
